<svg xmlns="http://www.w3.org/2000/svg" width="420" height="420" viewBox="0 0 420 420">
  <g id="contact" transform="translate(-750 -358)">
    <path id="Subtraction_1" data-name="Subtraction 1" d="M210,420a211.55,211.55,0,0,1-42.322-4.266,208.853,208.853,0,0,1-75.091-31.6A210.612,210.612,0,0,1,16.5,291.741,208.94,208.94,0,0,1,4.266,252.322a212.049,212.049,0,0,1,0-84.645,208.854,208.854,0,0,1,31.6-75.091A210.612,210.612,0,0,1,128.258,16.5,208.939,208.939,0,0,1,167.678,4.266a212.049,212.049,0,0,1,84.645,0,208.855,208.855,0,0,1,75.091,31.6A210.612,210.612,0,0,1,403.5,128.258a208.947,208.947,0,0,1,12.236,39.419,212.049,212.049,0,0,1,0,84.645,208.854,208.854,0,0,1-31.6,75.091A210.612,210.612,0,0,1,291.741,403.5a208.939,208.939,0,0,1-39.419,12.236A211.553,211.553,0,0,1,210,420Zm0-410a201.477,201.477,0,0,0-40.307,4.063A198.9,198.9,0,0,0,98.178,44.157a200.584,200.584,0,0,0-72.461,87.994,199,199,0,0,0-11.654,37.542,201.949,201.949,0,0,0,0,80.614,198.9,198.9,0,0,0,30.093,71.515,200.586,200.586,0,0,0,87.994,72.462,199,199,0,0,0,37.542,11.654,201.948,201.948,0,0,0,80.614,0,198.9,198.9,0,0,0,71.515-30.094,200.587,200.587,0,0,0,72.462-87.994,199,199,0,0,0,11.654-37.542,201.948,201.948,0,0,0,0-80.614,198.9,198.9,0,0,0-30.094-71.515,200.585,200.585,0,0,0-87.994-72.461,199,199,0,0,0-37.542-11.654A201.478,201.478,0,0,0,210,10Z" transform="translate(750 358)" fill="#fff"/>
    <g id="inner" transform="translate(-1 12)">
      <path id="Subtraction_2" data-name="Subtraction 2" d="M645,142.037l0,0-22.289-31.18A25.287,25.287,0,0,1,620,111H471a24.98,24.98,0,0,1-25-25V12a24.98,24.98,0,0,1,25-25H620a24.922,24.922,0,0,1,17.678,7.323A24.922,24.922,0,0,1,645,12V142.037ZM596,37a14,14,0,1,0,9.9,4.1A13.91,13.91,0,0,0,596,37Zm-49,0a14,14,0,1,0,9.9,4.1A13.908,13.908,0,0,0,547,37Zm-51,0a14,14,0,1,0,9.9,4.1A13.909,13.909,0,0,0,496,37Z" transform="translate(415 491)" fill="#fff"/>
    </g>
  </g>
</svg>
