<svg xmlns="http://www.w3.org/2000/svg" width="500" height="500" viewBox="0 0 500 500">
  <g id="Group_1" data-name="Group 1" transform="translate(-861 -301)">
    <path id="Exclusion_1" data-name="Exclusion 1" d="M250,500a251.847,251.847,0,0,1-50.384-5.079A248.633,248.633,0,0,1,110.222,457.3,250.729,250.729,0,0,1,19.646,347.311,248.737,248.737,0,0,1,5.079,300.383a252.435,252.435,0,0,1,0-100.767A248.633,248.633,0,0,1,42.7,110.222,250.727,250.727,0,0,1,152.689,19.646,248.735,248.735,0,0,1,199.616,5.079a252.436,252.436,0,0,1,100.767,0A248.634,248.634,0,0,1,389.777,42.7a250.729,250.729,0,0,1,90.577,109.993,248.74,248.74,0,0,1,14.567,46.928,252.437,252.437,0,0,1,0,100.767A248.633,248.633,0,0,1,457.3,389.777a250.732,250.732,0,0,1-109.993,90.577,248.748,248.748,0,0,1-46.927,14.567A251.842,251.842,0,0,1,250,500Zm2.016-464.806a216.3,216.3,0,0,0-43.273,4.362,213.537,213.537,0,0,0-76.777,32.308,215.344,215.344,0,0,0-77.793,94.47,213.652,213.652,0,0,0-12.511,40.3,216.815,216.815,0,0,0,0,86.546,213.541,213.541,0,0,0,32.308,76.777,215.346,215.346,0,0,0,94.469,77.793,213.638,213.638,0,0,0,40.3,12.511,216.809,216.809,0,0,0,86.546,0,213.538,213.538,0,0,0,76.777-32.308,215.345,215.345,0,0,0,77.793-94.469,213.644,213.644,0,0,0,12.511-40.3,216.816,216.816,0,0,0,0-86.546,213.541,213.541,0,0,0-32.308-76.778,215.343,215.343,0,0,0-94.469-77.794,213.638,213.638,0,0,0-40.3-12.511A216.3,216.3,0,0,0,252.016,35.194Z" transform="translate(861 301)" fill="#0070ce"/>
    <path id="Union_1" data-name="Union 1" d="M0,173.971,16.97,157,78.7,218.732V0h24V218.256l61.31-61.31,16.97,16.97-73.548,73.548.045.045-16.97,16.97Z" transform="translate(1020.297 382)" fill="#1070ce"/>
    <rect id="Rectangle_4" data-name="Rectangle 4" width="181" height="24" transform="translate(1021 666)" fill="#1070ce"/>
  </g>
</svg>
