<svg xmlns="http://www.w3.org/2000/svg" width="500" height="200" viewBox="0 70 1000 200">
  <g id="logo-full" transform="translate(-619 -355)">
    <g id="icon" transform="translate(619 355)">
      <path id="Union_1" data-name="Union 1" d="M163.044,336.061a31.949,31.949,0,0,1-7.467-2.669,33.757,33.757,0,0,1-11.355-9.625c-6.273-8.023-10.306-18.752-14.575-30.11a211.581,211.581,0,0,0-9.649-22.9,78.84,78.84,0,0,0-6.4-10.451,54.73,54.73,0,0,0-8.208-9.018c-12.644-11.027-29.884-18.4-46.555-25.527-7.336-3.137-14.922-6.381-21.844-9.842A107.538,107.538,0,0,1,18.17,204.362,49.415,49.415,0,0,1,4.975,189.189,40.486,40.486,0,0,1,1.3,179.653,46.651,46.651,0,0,1,0,168.5,165.527,165.527,0,0,1,29.375,74.29a170.515,170.515,0,0,1,21-24.937A172.823,172.823,0,0,1,137.336,3.424a177.2,177.2,0,0,1,69.328,0,172.68,172.68,0,0,1,86.959,45.929,170.564,170.564,0,0,1,21,24.937,167.442,167.442,0,0,1,15.859,28.623,165.609,165.609,0,0,1,0,131.176,167.467,167.467,0,0,1-15.859,28.622,170.571,170.571,0,0,1-21,24.938,172.819,172.819,0,0,1-86.959,45.929A176.746,176.746,0,0,1,172,337,40.872,40.872,0,0,1,163.044,336.061ZM100,58.4V170.415a54.994,54.994,0,0,0,4.715,22.36,56.719,56.719,0,0,0,5.532,9.758,58.549,58.549,0,0,0,7.327,8.5,60.017,60.017,0,0,0,8.879,7.015,60.868,60.868,0,0,0,10.192,5.3A61.915,61.915,0,0,0,160,227.858H277a1.961,1.961,0,0,0,2-1.915v-30.93H247.66a127.6,127.6,0,0,1-17.114,0c-6.08-.476-8.2-.238-13.759-2.6-4.156-1.766-6.868-4.4-8.054-7.057a40.867,40.867,0,0,1-2.685-9.927,195.193,195.193,0,0,1-1.653-24c-.381-30.178-.117-64.862,0-81.942.027-3.936-2.9-9.106-4.451-11.571A101.084,101.084,0,0,0,183,56.486H102A1.962,1.962,0,0,0,100,58.4Zm125.512,93.026s-.292,7.677,1.678,13.5c1.349,3.992,3.58,5.991,8.725,8.522,3,1.478,11.809,1.9,16.78,1.976,10.42.154,19.362.182,26.305.162v-27.2a88.265,88.265,0,0,0-7.544-35.775A90.734,90.734,0,0,0,262.6,97.007a93.585,93.585,0,0,0-11.723-13.6,95.819,95.819,0,0,0-14.207-11.223,97.261,97.261,0,0,0-11.163-6.216Z" transform="translate(0 0)" fill="#1966ff"/>
    </g>
    <text id="Luzcode" transform="translate(976 410)" fill="#9f9d9d" font-size="150" font-family="HelveticaNeue, Helvetica Neue, Segoe UI, Roboto, Arial, Noto Sans, sans-serif"><tspan x="0" y="143">Luzcode</tspan></text>
  </g>
</svg>
