<svg xmlns="http://www.w3.org/2000/svg" width="172.036" height="192.071" viewBox="0 0 172.036 192.071">
  <g id="search" transform="translate(-896.964 -403)">
    <path id="Union_1" data-name="Union 1" d="M15.408,183.542,72.027,118.41q-.772-.725-1.52-1.473a68.617,68.617,0,0,1-14.68-21.774A68.41,68.41,0,0,1,62.142,30.2,68.706,68.706,0,0,1,92.281,5.383,68.4,68.4,0,0,1,157.243,11.7a68.713,68.713,0,0,1,24.818,30.137,68.4,68.4,0,0,1-6.316,64.962,68.712,68.712,0,0,1-30.137,24.818,68.4,68.4,0,0,1-63.295-5.225L25.22,192.071ZM96.562,15.519A57.686,57.686,0,1,0,118.944,11,57.521,57.521,0,0,0,96.562,15.519Z" transform="translate(881.556 403)" fill="#fff"/>
  </g>
</svg>
